<?xml version="1.0" encoding="utf-8"?>
<!-- Generator: Adobe Illustrator 21.0.0, SVG Export Plug-In . SVG Version: 6.00 Build 0)  -->
<svg version="1.1" id="Capa_1" xmlns="http://www.w3.org/2000/svg" xmlns:xlink="http://www.w3.org/1999/xlink" x="0px" y="0px"
	 viewBox="0 0 24 24" style="enable-background:new 0 0 24 24;" xml:space="preserve">
<path d="M23,5.1C23,5.1,23,5.1,23,5.1C23,5,23,5,23,5c0,0,0,0,0,0c0,0,0-0.1,0-0.1c0,0,0,0,0,0c0,0,0,0,0,0c0,0,0,0,0,0c0,0,0,0,0,0
	c0,0-0.1-0.1-0.1-0.1c0,0,0,0,0,0c0,0-0.1,0-0.1,0c0,0,0,0,0,0c0,0-0.1,0-0.1,0c0,0,0,0,0,0c0,0,0,0,0,0L1.3,9.1
	C1.1,9.1,1,9.2,1,9.4c0,0.2,0.1,0.3,0.2,0.4L7.3,13l1.1,5.9c0,0,0,0,0,0c0,0,0,0.1,0,0.1c0,0,0,0,0,0c0,0,0,0.1,0,0.1c0,0,0,0,0,0
	c0,0,0,0,0,0c0,0,0,0,0,0c0,0,0,0,0.1,0.1c0,0,0,0,0,0c0,0,0,0,0,0c0,0,0,0,0.1,0c0,0,0,0,0,0c0,0,0.1,0,0.1,0c0,0,0,0,0,0l0,0l0,0
	c0,0,0,0,0,0c0,0,0,0,0,0c0.1,0,0.2,0,0.3-0.1l4.1-2.7l4.2,2.8c0.1,0,0.1,0.1,0.2,0.1c0,0,0.1,0,0.1,0c0.1,0,0.2-0.1,0.2-0.2L23,5.1
	C23,5.2,23,5.1,23,5.1C23,5.1,23,5.1,23,5.1C23,5.1,23,5.1,23,5.1z M18.8,7.4L10,13.9c0,0,0,0,0,0c0,0,0,0,0,0c0,0,0,0,0,0
	c0,0,0,0,0,0c0,0,0,0,0,0.1c0,0,0,0,0,0c0,0,0,0,0,0l-1,3.3L8,12.9L18.8,7.4z M9.4,18.1l1-3.3l1.6,1l0.4,0.3l-1.5,1L9.4,18.1z
	 M20.1,5.9L7.6,12.3L2.4,9.6L20.1,5.9z M17.3,18.4l-5.6-3.7l-0.9-0.6l11-8.1L17.3,18.4z"/>
</svg>
