<?xml version="1.0" standalone="no"?>
<!DOCTYPE svg PUBLIC "-//W3C//DTD SVG 20010904//EN"
 "http://www.w3.org/TR/2001/REC-SVG-20010904/DTD/svg10.dtd">
<svg version="1.0" xmlns="http://www.w3.org/2000/svg"
 width="620.000000pt" height="620.000000pt" viewBox="0 0 620.000000 620.000000"
 preserveAspectRatio="xMidYMid meet">
<metadata>
Created by potrace 1.11, written by Peter Selinger 2001-2013
</metadata>
<g transform="translate(0.000000,620.000000) scale(0.100000,-0.100000)"
fill="#000000" stroke="none">
<path d="M2770 5810 c-167 -22 -274 -43 -411 -80 -763 -209 -1400 -724 -1760
-1424 -166 -322 -253 -608 -300 -981 -36 -293 -16 -647 56 -950 215 -909 857
-1652 1720 -1988 300 -117 717 -197 1025 -197 229 0 579 54 815 126 751 228
1367 750 1710 1449 88 180 132 292 178 451 157 539 154 1082 -9 1621 -97 322
-278 665 -491 933 -144 181 -360 386 -552 525 -111 80 -252 167 -259 160 -3
-3 -10 1 -16 9 -40 49 -391 198 -617 261 -345 97 -757 129 -1089 85z m885
-280 c-3 -5 -10 -10 -16 -10 -5 0 -9 5 -9 10 0 6 7 10 16 10 8 0 12 -4 9 -10z
m-327 -361 c497 -54 950 -269 1303 -619 347 -345 563 -782 630 -1280 19 -138
16 -440 -5 -580 -81 -527 -339 -999 -731 -1337 -451 -389 -1048 -581 -1626
-523 -497 51 -973 274 -1319 620 -181 180 -308 357 -420 585 -157 320 -224
607 -224 965 0 216 15 343 64 538 222 876 968 1529 1865 1630 114 13 349 14
463 1z m672 -99 c0 -5 -5 -10 -11 -10 -5 0 -7 5 -4 10 3 6 8 10 11 10 2 0 4
-4 4 -10z m-2735 -330 c0 -7 -6 -15 -12 -17 -8 -3 -13 4 -13 17 0 13 5 20 13
18 6 -3 12 -11 12 -18z"/>
</g>
</svg>
